<svg width="44" height="44" viewBox="0 0 44 44" fill="none" xmlns="http://www.w3.org/2000/svg">
                <mask id="path-1-inside-1_5662_1377" fill="white">
                  <path d="M25.6666 15.8897C25.6666 16.6149 25.4515 17.3238 25.0486 17.9268C24.6457 18.5298 24.0731 18.9998 23.4031 19.2773C22.7331 19.5548 21.9959 19.6274 21.2846 19.4859C20.5733 19.3445 19.92 18.9952 19.4072 18.4824C18.8944 17.9697 18.5452 17.3163 18.4037 16.6051C18.2622 15.8938 18.3348 15.1565 18.6124 14.4865C18.8899 13.8166 19.3598 13.2439 19.9628 12.841C20.5658 12.4381 21.2747 12.2231 21.9999 12.2231C22.9724 12.2231 23.905 12.6094 24.5926 13.297C25.2803 13.9846 25.6666 14.9173 25.6666 15.8897ZM41.7193 29.9679C41.9362 30.2189 42.0809 30.5241 42.138 30.8509C42.1951 31.1778 42.1625 31.514 42.0435 31.8237C41.9246 32.1334 41.7239 32.4051 41.4627 32.6097C41.2016 32.8143 40.8898 32.9442 40.5606 32.9856L33.8286 33.8289L32.9853 40.5609C32.9398 40.9233 32.7872 41.2639 32.547 41.5389C32.3067 41.814 31.9898 42.0111 31.6368 42.1049C31.2838 42.1986 30.9109 42.1848 30.5658 42.0652C30.2207 41.9456 29.9192 41.7257 29.6999 41.4336L21.9999 31.1669L14.2999 41.4336C14.0807 41.7257 13.7792 41.9456 13.4341 42.0652C13.089 42.1848 12.716 42.1986 12.363 42.1049C12.01 42.0111 11.6931 41.814 11.4529 41.5389C11.2126 41.2639 11.06 40.9233 11.0146 40.5609L10.1713 33.8289L3.43925 32.9856C3.11007 32.9442 2.79828 32.8143 2.53712 32.6097C2.27596 32.4051 2.07522 32.1334 1.9563 31.8237C1.83738 31.514 1.80473 31.1778 1.86184 30.8509C1.91895 30.5241 2.06367 30.2189 2.28058 29.9679L9.29492 21.8609C8.28092 19.7185 7.82516 17.3544 7.97003 14.9886C8.1149 12.6227 8.85568 10.332 10.1235 8.32926C11.3913 6.32656 13.145 4.67699 15.2214 3.53394C17.2979 2.3909 19.6297 1.7915 21.9999 1.7915C24.3702 1.7915 26.702 2.3909 28.7784 3.53394C30.8548 4.67699 32.6085 6.32656 33.8763 8.32926C35.1442 10.332 35.8849 12.6227 36.0298 14.9886C36.1747 17.3544 35.7189 19.7185 34.7049 21.8609L41.7193 29.9679ZM18.6431 29.5316C18.6046 29.5316 18.5679 29.5041 18.5294 29.4931C15.7649 28.7817 13.2817 27.2473 11.4088 25.0931C11.3978 25.0802 11.3831 25.0711 11.3721 25.0564L7.29659 29.7736L12.0413 30.3657C12.4462 30.4161 12.8229 30.6001 13.1115 30.8887C13.4 31.1773 13.5841 31.5539 13.6344 31.9589L14.0891 35.6036L18.6431 29.5316ZM32.3931 15.8897C32.3934 13.835 31.7845 11.8262 30.6433 10.1175C29.5021 8.4088 27.8798 7.07687 25.9816 6.29012C24.0834 5.50337 21.9946 5.29715 19.9792 5.69753C17.9638 6.09791 16.1124 7.0869 14.659 8.53946C13.2057 9.99202 12.2157 11.8429 11.8143 13.8581C11.4129 15.8733 11.618 17.9622 12.4037 19.8608C13.1895 21.7594 14.5205 23.3824 16.2286 24.5245C17.9367 25.6667 19.9451 26.2767 21.9999 26.2774C24.7542 26.2745 27.3948 25.1792 29.3425 23.2318C31.2903 21.2844 32.386 18.644 32.3894 15.8897H32.3931ZM36.7033 29.7736L32.6333 25.0637C30.7538 27.2306 28.2604 28.7752 25.4833 29.4931C25.4448 29.5041 25.4081 29.5224 25.3696 29.5316L29.9236 35.6036L30.3783 31.9589C30.4286 31.5539 30.6126 31.1773 30.9012 30.8887C31.1898 30.6001 31.5664 30.4161 31.9714 30.3657L36.7033 29.7736Z"></path>
                </mask>
                <path d="M25.6666 15.8897C25.6666 16.6149 25.4515 17.3238 25.0486 17.9268C24.6457 18.5298 24.0731 18.9998 23.4031 19.2773C22.7331 19.5548 21.9959 19.6274 21.2846 19.4859C20.5733 19.3445 19.92 18.9952 19.4072 18.4824C18.8944 17.9697 18.5452 17.3163 18.4037 16.6051C18.2622 15.8938 18.3348 15.1565 18.6124 14.4865C18.8899 13.8166 19.3598 13.2439 19.9628 12.841C20.5658 12.4381 21.2747 12.2231 21.9999 12.2231C22.9724 12.2231 23.905 12.6094 24.5926 13.297C25.2803 13.9846 25.6666 14.9173 25.6666 15.8897ZM41.7193 29.9679C41.9362 30.2189 42.0809 30.5241 42.138 30.8509C42.1951 31.1778 42.1625 31.514 42.0435 31.8237C41.9246 32.1334 41.7239 32.4051 41.4627 32.6097C41.2016 32.8143 40.8898 32.9442 40.5606 32.9856L33.8286 33.8289L32.9853 40.5609C32.9398 40.9233 32.7872 41.2639 32.547 41.5389C32.3067 41.814 31.9898 42.0111 31.6368 42.1049C31.2838 42.1986 30.9109 42.1848 30.5658 42.0652C30.2207 41.9456 29.9192 41.7257 29.6999 41.4336L21.9999 31.1669L14.2999 41.4336C14.0807 41.7257 13.7792 41.9456 13.4341 42.0652C13.089 42.1848 12.716 42.1986 12.363 42.1049C12.01 42.0111 11.6931 41.814 11.4529 41.5389C11.2126 41.2639 11.06 40.9233 11.0146 40.5609L10.1713 33.8289L3.43925 32.9856C3.11007 32.9442 2.79828 32.8143 2.53712 32.6097C2.27596 32.4051 2.07522 32.1334 1.9563 31.8237C1.83738 31.514 1.80473 31.1778 1.86184 30.8509C1.91895 30.5241 2.06367 30.2189 2.28058 29.9679L9.29492 21.8609C8.28092 19.7185 7.82516 17.3544 7.97003 14.9886C8.1149 12.6227 8.85568 10.332 10.1235 8.32926C11.3913 6.32656 13.145 4.67699 15.2214 3.53394C17.2979 2.3909 19.6297 1.7915 21.9999 1.7915C24.3702 1.7915 26.702 2.3909 28.7784 3.53394C30.8548 4.67699 32.6085 6.32656 33.8763 8.32926C35.1442 10.332 35.8849 12.6227 36.0298 14.9886C36.1747 17.3544 35.7189 19.7185 34.7049 21.8609L41.7193 29.9679ZM18.6431 29.5316C18.6046 29.5316 18.5679 29.5041 18.5294 29.4931C15.7649 28.7817 13.2817 27.2473 11.4088 25.0931C11.3978 25.0802 11.3831 25.0711 11.3721 25.0564L7.29659 29.7736L12.0413 30.3657C12.4462 30.4161 12.8229 30.6001 13.1115 30.8887C13.4 31.1773 13.5841 31.5539 13.6344 31.9589L14.0891 35.6036L18.6431 29.5316ZM32.3931 15.8897C32.3934 13.835 31.7845 11.8262 30.6433 10.1175C29.5021 8.4088 27.8798 7.07687 25.9816 6.29012C24.0834 5.50337 21.9946 5.29715 19.9792 5.69753C17.9638 6.09791 16.1124 7.0869 14.659 8.53946C13.2057 9.99202 12.2157 11.8429 11.8143 13.8581C11.4129 15.8733 11.618 17.9622 12.4037 19.8608C13.1895 21.7594 14.5205 23.3824 16.2286 24.5245C17.9367 25.6667 19.9451 26.2767 21.9999 26.2774C24.7542 26.2745 27.3948 25.1792 29.3425 23.2318C31.2903 21.2844 32.386 18.644 32.3894 15.8897H32.3931ZM36.7033 29.7736L32.6333 25.0637C30.7538 27.2306 28.2604 28.7752 25.4833 29.4931C25.4448 29.5041 25.4081 29.5224 25.3696 29.5316L29.9236 35.6036L30.3783 31.9589C30.4286 31.5539 30.6126 31.1773 30.9012 30.8887C31.1898 30.6001 31.5664 30.4161 31.9714 30.3657L36.7033 29.7736Z" fill="black"></path>
                <path d="M21.9999 12.2231V8.22305V12.2231ZM41.7193 29.9679L44.7459 27.3527L44.7442 27.3507L41.7193 29.9679ZM40.5606 32.9856L41.0578 36.9545L41.0593 36.9543L40.5606 32.9856ZM33.8286 33.8289L33.3314 29.8599L30.2461 30.2464L29.8596 33.3317L33.8286 33.8289ZM32.9853 40.5609L36.9542 41.0582L36.9542 41.0581L32.9853 40.5609ZM29.6999 41.4336L26.4999 43.8336L26.5009 43.8348L29.6999 41.4336ZM21.9999 31.1669L25.1999 28.7669L21.9999 24.5002L18.7999 28.7669L21.9999 31.1669ZM14.2999 41.4336L17.499 43.8348L17.4999 43.8336L14.2999 41.4336ZM11.0146 40.5609L7.04561 41.0581L7.04562 41.0582L11.0146 40.5609ZM10.1713 33.8289L14.1402 33.3317L13.7537 30.2464L10.6685 29.8599L10.1713 33.8289ZM3.43925 32.9856L2.94059 36.9543L2.94205 36.9545L3.43925 32.9856ZM2.28058 29.9679L-0.744338 27.3507L-0.74608 27.3527L2.28058 29.9679ZM9.29492 21.8609L12.3198 24.4781L14.0258 22.5064L12.9104 20.1497L9.29492 21.8609ZM21.9999 1.7915V-2.2085V1.7915ZM34.7049 21.8609L31.0894 20.1497L29.974 22.5064L31.68 24.4781L34.7049 21.8609ZM18.6431 29.5316L21.8431 31.9316L26.6431 25.5316H18.6431V29.5316ZM18.5294 29.4931L19.6283 25.647L19.5774 25.6324L19.5262 25.6192L18.5294 29.4931ZM11.4088 25.0931L8.37173 27.6962L8.38088 27.7069L8.39011 27.7175L11.4088 25.0931ZM11.3721 25.0564L14.5721 22.6564L11.5922 18.6832L8.3453 22.4413L11.3721 25.0564ZM7.29659 29.7736L4.2698 27.1585L-0.618738 32.8167L6.8012 33.7428L7.29659 29.7736ZM12.0413 30.3657L11.5459 34.3349L11.5478 34.3352L12.0413 30.3657ZM13.6344 31.9589L9.66497 32.4523L9.66518 32.454L13.6344 31.9589ZM14.0891 35.6036L10.1199 36.0987L11.346 45.9277L17.2891 38.0036L14.0891 35.6036ZM32.3931 15.8897V19.8897H36.3924L36.3931 15.8904L32.3931 15.8897ZM21.9999 26.2774L21.9985 30.2774L22.0041 30.2774L21.9999 26.2774ZM32.3894 15.8897V11.8897H28.3944L28.3894 15.8848L32.3894 15.8897ZM36.7033 29.7736L37.2 33.7426L44.6175 32.8143L39.7298 27.1582L36.7033 29.7736ZM32.6333 25.0637L35.6598 22.4484L32.6389 18.9525L29.6115 22.4428L32.6333 25.0637ZM25.4833 29.4931L24.4823 25.6203L24.4331 25.633L24.3844 25.647L25.4833 29.4931ZM25.3696 29.5316L24.4431 25.6403L18.5106 27.0528L22.1696 31.9316L25.3696 29.5316ZM29.9236 35.6036L26.7236 38.0036L32.6667 45.9277L33.8928 36.0987L29.9236 35.6036ZM30.3783 31.9589L34.3475 32.454L34.3477 32.4523L30.3783 31.9589ZM31.9714 30.3657L32.4649 34.3352L32.4681 34.3348L31.9714 30.3657ZM21.6666 15.8897C21.6666 15.8238 21.6861 15.7593 21.7228 15.7045L28.3745 20.1491C29.2169 18.8883 29.6666 17.406 29.6666 15.8897H21.6666ZM21.7228 15.7045C21.7594 15.6497 21.8114 15.607 21.8724 15.5818L24.9338 22.9728C26.3347 22.3925 27.5321 21.4099 28.3745 20.1491L21.7228 15.7045ZM21.8724 15.5818C21.9333 15.5565 22.0003 15.5499 22.0649 15.5628L20.5042 23.4091C21.9914 23.7049 23.5329 23.5531 24.9338 22.9728L21.8724 15.5818ZM22.0649 15.5628C22.1296 15.5757 22.189 15.6074 22.2356 15.654L16.5788 21.3109C17.651 22.3831 19.017 23.1133 20.5042 23.4091L22.0649 15.5628ZM22.2356 15.654C22.2822 15.7006 22.314 15.76 22.3268 15.8247L14.4806 17.3854C14.7764 18.8726 15.5066 20.2387 16.5788 21.3109L22.2356 15.654ZM22.3268 15.8247C22.3397 15.8894 22.3331 15.9564 22.3079 16.0173L14.9168 12.9558C14.3366 14.3567 14.1847 15.8982 14.4806 17.3854L22.3268 15.8247ZM22.3079 16.0173C22.2826 16.0782 22.2399 16.1303 22.1851 16.1669L17.7405 9.51512C16.4798 10.3575 15.4971 11.5549 14.9168 12.9558L22.3079 16.0173ZM22.1851 16.1669C22.1303 16.2035 22.0658 16.2231 21.9999 16.2231V8.22305C20.4836 8.22305 19.0013 8.6727 17.7405 9.51512L22.1851 16.1669ZM21.9999 16.2231C21.9115 16.2231 21.8267 16.1879 21.7642 16.1254L27.4211 10.4686C25.9833 9.03079 24.0332 8.22305 21.9999 8.22305V16.2231ZM21.7642 16.1254C21.7017 16.0629 21.6666 15.9781 21.6666 15.8897H29.6666C29.6666 13.8564 28.8588 11.9063 27.4211 10.4686L21.7642 16.1254ZM38.6926 32.5831C38.4362 32.2864 38.2652 31.9257 38.1977 31.5395L46.0783 30.1624C45.8966 29.1225 45.4361 28.1514 44.7459 27.3527L38.6926 32.5831ZM38.1977 31.5395C38.1302 31.1532 38.1688 30.7559 38.3093 30.3899L45.7777 33.2575C46.1561 32.272 46.26 31.2023 46.0783 30.1624L38.1977 31.5395ZM38.3093 30.3899C38.4499 30.0239 38.6871 29.7028 38.9958 29.461L43.9297 35.7583C44.7606 35.1073 45.3994 34.243 45.7777 33.2575L38.3093 30.3899ZM38.9958 29.461C39.3044 29.2192 39.6729 29.0656 40.0619 29.0168L41.0593 36.9543C42.1067 36.8228 43.0987 36.4094 43.9297 35.7583L38.9958 29.461ZM40.0634 29.0166L33.3314 29.8599L34.3258 37.7979L41.0578 36.9545L40.0634 29.0166ZM29.8596 33.3317L29.0163 40.0637L36.9542 41.0581L37.7976 34.3261L29.8596 33.3317ZM29.0163 40.0636C29.07 39.6353 29.2503 39.2328 29.5342 38.9077L35.5597 44.1702C36.3242 43.2949 36.8097 42.2113 36.9542 41.0582L29.0163 40.0636ZM29.5342 38.9077C29.8182 38.5826 30.1927 38.3497 30.6099 38.2389L32.6637 45.9708C33.7869 45.6725 34.7953 45.0454 35.5597 44.1702L29.5342 38.9077ZM30.6099 38.2389C31.0271 38.1281 31.4679 38.1444 31.8757 38.2858L29.2559 45.8446C30.3539 46.2252 31.5405 46.2691 32.6637 45.9708L30.6099 38.2389ZM31.8757 38.2858C32.2835 38.4271 32.6398 38.6871 32.899 39.0323L26.5009 43.8348C27.1985 44.7642 28.1578 45.4641 29.2559 45.8446L31.8757 38.2858ZM32.8999 39.0336L25.1999 28.7669L18.7999 33.5669L26.4999 43.8336L32.8999 39.0336ZM18.7999 28.7669L11.0999 39.0336L17.4999 43.8336L25.1999 33.5669L18.7999 28.7669ZM11.1009 39.0323C11.36 38.687 11.7163 38.4271 12.1242 38.2858L14.744 45.8446C15.842 45.4641 16.8013 44.7643 17.499 43.8348L11.1009 39.0323ZM12.1242 38.2858C12.532 38.1444 12.9727 38.1281 13.3899 38.2389L11.3361 45.9708C12.4593 46.2691 13.646 46.2252 14.744 45.8446L12.1242 38.2858ZM13.3899 38.2389C13.8071 38.3497 14.1817 38.5826 14.4656 38.9077L8.44012 44.1702C9.20454 45.0454 10.213 45.6725 11.3361 45.9708L13.3899 38.2389ZM14.4656 38.9077C14.7495 39.2328 14.9299 39.6353 14.9836 40.0636L7.04562 41.0582C7.19009 42.2113 7.67568 43.2949 8.44012 44.1702L14.4656 38.9077ZM14.9836 40.0637L14.1402 33.3317L6.20227 34.3261L7.04561 41.0581L14.9836 40.0637ZM10.6685 29.8599L3.93645 29.0166L2.94205 36.9545L9.67405 37.7979L10.6685 29.8599ZM3.93792 29.0168C4.32695 29.0656 4.69543 29.2192 5.00407 29.461L0.070168 35.7583C0.901128 36.4094 1.89318 36.8228 2.94059 36.9543L3.93792 29.0168ZM5.00407 29.461C5.31272 29.7028 5.54996 30.0239 5.6905 30.3899L-1.7779 33.2575C-1.39952 34.2429 -0.7608 35.1073 0.070168 35.7583L5.00407 29.461ZM5.6905 30.3899C5.83104 30.7559 5.86963 31.1532 5.80213 31.5395L-2.07845 30.1624C-2.26017 31.2023 -2.15629 32.272 -1.7779 33.2575L5.6905 30.3899ZM5.80213 31.5395C5.73464 31.9257 5.56359 32.2864 5.30725 32.5831L-0.74608 27.3527C-1.43625 28.1514 -1.89674 29.1225 -2.07845 30.1624L5.80213 31.5395ZM5.30551 32.5851L12.3198 24.4781L6.27 19.2437L-0.744337 27.3507L5.30551 32.5851ZM12.9104 20.1497C12.185 18.6169 11.8589 16.9256 11.9626 15.2331L3.97751 14.7441C3.79142 17.7832 4.37687 20.82 5.67942 23.5721L12.9104 20.1497ZM11.9626 15.2331C12.0662 13.5405 12.5962 11.9016 13.5032 10.4688L6.7438 6.18972C5.11519 8.76234 4.1636 11.705 3.97751 14.7441L11.9626 15.2331ZM13.5032 10.4688C14.4102 9.03601 15.6649 7.85586 17.1504 7.03809L13.2925 0.0297909C10.6251 1.49811 8.3724 3.61711 6.7438 6.18972L13.5032 10.4688ZM17.1504 7.03809C18.6359 6.22033 20.3042 5.7915 21.9999 5.7915V-2.2085C18.9551 -2.2085 15.9598 -1.43853 13.2925 0.0297909L17.1504 7.03809ZM21.9999 5.7915C23.6957 5.7915 25.3639 6.22033 26.8494 7.03809L30.7074 0.0297909C28.04 -1.43853 25.0447 -2.2085 21.9999 -2.2085V5.7915ZM26.8494 7.03809C28.335 7.85586 29.5896 9.03601 30.4966 10.4688L37.256 6.18972C35.6274 3.61711 33.3747 1.49811 30.7074 0.0297909L26.8494 7.03809ZM30.4966 10.4688C31.4037 11.9016 31.9336 13.5405 32.0373 15.2331L40.0223 14.7441C39.8362 11.705 38.8846 8.76234 37.256 6.18972L30.4966 10.4688ZM32.0373 15.2331C32.1409 16.9256 31.8149 18.6169 31.0894 20.1497L38.3204 23.5721C39.623 20.82 40.2084 17.7832 40.0223 14.7441L32.0373 15.2331ZM31.68 24.4781L38.6943 32.5851L44.7442 27.3507L37.7298 19.2437L31.68 24.4781ZM18.6431 25.5316C19.1092 25.5316 19.4857 25.6147 19.7318 25.6863C19.9688 25.7552 20.1435 25.8316 20.1942 25.8539C20.2216 25.8659 20.2451 25.8767 20.2336 25.8715C20.2321 25.8707 20.198 25.8551 20.1578 25.8376C20.0816 25.8043 19.8863 25.7207 19.6283 25.647L17.4305 33.3392C17.1918 33.2709 17.0155 33.1949 16.9582 33.1699C16.9275 33.1565 16.9028 33.1451 16.9107 33.1487C16.9109 33.1488 16.9201 33.153 16.9299 33.1574C16.9407 33.1623 16.9577 33.1699 16.9783 33.179C17.0478 33.2095 17.2413 33.2934 17.4972 33.3679C17.7622 33.445 18.1577 33.5316 18.6431 33.5316V25.5316ZM19.5262 25.6192C17.5466 25.1099 15.7685 24.0111 14.4274 22.4686L8.39011 27.7175C10.7949 30.4834 13.9831 32.4535 17.5326 33.3669L19.5262 25.6192ZM14.4458 22.4899C14.3134 22.3354 14.1962 22.2224 14.1321 22.1625C14.0995 22.132 14.0731 22.1083 14.0615 22.0979C14.0556 22.0926 14.0506 22.0882 14.05 22.0877C14.0481 22.086 14.0512 22.0887 14.0545 22.0917C14.0616 22.098 14.0828 22.117 14.11 22.1423C14.1379 22.1682 14.1769 22.2053 14.2224 22.2512C14.3136 22.3432 14.439 22.4789 14.5721 22.6564L8.17209 27.4564C8.31068 27.6412 8.44203 27.7835 8.53944 27.8818C8.63181 27.9751 8.70958 28.0442 8.7263 28.0591C8.72911 28.0616 8.73145 28.0637 8.73294 28.065C8.73428 28.0662 8.73562 28.0674 8.73562 28.0674C8.73668 28.0684 8.73326 28.0653 8.72897 28.0615C8.72053 28.0539 8.69727 28.0331 8.66772 28.0055C8.60989 27.9514 8.49864 27.8443 8.37173 27.6962L14.4458 22.4899ZM8.3453 22.4413L4.2698 27.1585L10.3234 32.3886L14.3989 27.6714L8.3453 22.4413ZM6.8012 33.7428L11.5459 34.3349L12.5366 26.3965L7.79197 25.8043L6.8012 33.7428ZM11.5478 34.3352C11.0692 34.2757 10.6241 34.0582 10.283 33.7171L15.9399 28.0603C15.0217 27.1421 13.8233 26.5565 12.5347 26.3963L11.5478 34.3352ZM10.283 33.7171C9.94198 33.3761 9.72447 32.931 9.66497 32.4523L17.6039 31.4654C17.4437 30.1768 16.8581 28.9785 15.9399 28.0603L10.283 33.7171ZM9.66518 32.454L10.1199 36.0987L18.0583 35.1084L17.6037 31.4637L9.66518 32.454ZM17.2891 38.0036L21.8431 31.9316L15.4431 27.1316L10.8891 33.2036L17.2891 38.0036ZM36.3931 15.8904C36.3936 13.0446 35.5502 10.2625 33.9696 7.89589L27.317 12.3391C28.0188 13.39 28.3933 14.6253 28.3931 15.889L36.3931 15.8904ZM33.9696 7.89589C32.389 5.52932 30.1421 3.68458 27.5131 2.59494L24.45 9.9853C25.6174 10.4691 26.6151 11.2883 27.317 12.3391L33.9696 7.89589ZM27.5131 2.59494C24.8841 1.50529 21.9911 1.21968 19.1998 1.7742L20.7586 9.62086C21.998 9.37463 23.2827 9.50146 24.45 9.9853L27.5131 2.59494ZM19.1998 1.7742C16.4084 2.32872 13.8442 3.69848 11.8314 5.71028L17.4867 11.3686C18.3805 10.4753 19.5191 9.86709 20.7586 9.62086L19.1998 1.7742ZM11.8314 5.71028C9.8185 7.72208 8.44738 10.2856 7.89138 13.0766L15.7372 14.6396C15.9841 13.4002 16.5929 12.262 17.4867 11.3686L11.8314 5.71028ZM7.89138 13.0766C7.33538 15.8676 7.61947 18.7608 8.70772 21.3904L16.0997 18.3312C15.6165 17.1636 15.4903 15.8789 15.7372 14.6396L7.89138 13.0766ZM8.70772 21.3904C9.79597 24.02 11.6395 26.2678 14.0052 27.8497L18.452 21.1994C17.4015 20.497 16.5829 19.4989 16.0997 18.3312L8.70772 21.3904ZM14.0052 27.8497C16.371 29.4315 19.1526 30.2764 21.9985 30.2774L22.0013 22.2774C20.7377 22.2769 19.5025 21.9018 18.452 21.1994L14.0052 27.8497ZM22.0041 30.2774C25.8177 30.2734 29.4739 28.7568 32.1707 26.0605L26.5144 20.4031C25.3157 21.6016 23.6907 22.2756 21.9957 22.2774L22.0041 30.2774ZM32.1707 26.0605C34.8675 23.3641 36.3847 19.7082 36.3894 15.8947L28.3894 15.8848C28.3873 17.5798 27.713 19.2047 26.5144 20.4031L32.1707 26.0605ZM32.3894 19.8897H32.3931V11.8897H32.3894V19.8897ZM39.7298 27.1582L35.6598 22.4484L29.6067 27.6791L33.6767 32.3889L39.7298 27.1582ZM29.6115 22.4428C28.2633 23.9973 26.4745 25.1054 24.4823 25.6203L26.4843 33.3658C30.0462 32.4451 33.2444 30.4639 35.655 27.6846L29.6115 22.4428ZM24.3844 25.647C24.3194 25.6655 24.2624 25.6835 24.2151 25.6991C24.168 25.7146 24.1279 25.7287 24.0978 25.7396C24.068 25.7503 24.0437 25.7594 24.0304 25.7645C24.0236 25.767 24.0178 25.7692 24.0151 25.7702C24.0112 25.7717 24.0117 25.7715 24.0119 25.7714C24.0127 25.7711 24.0251 25.7665 24.0424 25.7602C24.0602 25.7537 24.0881 25.7437 24.1229 25.7319C24.158 25.7202 24.2029 25.7057 24.2557 25.6901C24.3087 25.6746 24.3716 25.6573 24.4431 25.6403L26.2961 33.4228C26.4562 33.3847 26.5864 33.3438 26.6734 33.3145C26.757 33.2864 26.8243 33.2608 26.8409 33.2545C26.8458 33.2527 26.851 33.2507 26.8519 33.2504C26.8539 33.2496 26.8527 33.2501 26.8506 33.2509C26.8467 33.2523 26.8319 33.2579 26.8116 33.2652C26.7725 33.2793 26.6901 33.3083 26.5821 33.3392L24.3844 25.647ZM22.1696 31.9316L26.7236 38.0036L33.1236 33.2036L28.5696 27.1316L22.1696 31.9316ZM33.8928 36.0987L34.3475 32.454L26.409 31.4637L25.9544 35.1084L33.8928 36.0987ZM34.3477 32.4523C34.2882 32.931 34.0707 33.3761 33.7296 33.7171L28.0728 28.0603C27.1546 28.9785 26.569 30.1768 26.4088 31.4654L34.3477 32.4523ZM33.7296 33.7171C33.3886 34.0582 32.9435 34.2757 32.4649 34.3352L31.478 26.3963C30.1893 26.5565 28.991 27.1421 28.0728 28.0603L33.7296 33.7171ZM32.4681 34.3348L37.2 33.7426L36.2065 25.8045L31.4747 26.3967L32.4681 34.3348Z" fill="#006CCF" mask="url(#path-1-inside-1_5662_1377)"></path>
              </svg>