<svg width="49" height="49" viewBox="0 0 49 49" fill="none" xmlns="http://www.w3.org/2000/svg">
<circle cx="24.5" cy="24.5" r="24.5" fill="url(#paint0_linear_5509_108226)"/>
<path d="M37.9598 12.007C37.894 11.7573 37.7631 11.5294 37.5804 11.3468C37.3978 11.1641 37.1699 11.0332 36.9202 10.9674C33.9286 10.1904 30.7784 10.2741 27.8322 11.2088C24.8861 12.1436 22.2639 13.8914 20.2675 16.251L18.6416 18.1816L14.8429 17.2651C13.9194 16.9431 12.9106 16.9662 12.0028 17.3301C11.095 17.6939 10.3495 18.374 9.90396 19.2446L6.69535 24.932C6.58293 25.1312 6.51895 25.354 6.50858 25.5826C6.49821 25.8111 6.54175 26.0388 6.63568 26.2474C6.7296 26.456 6.87128 26.6395 7.04926 26.7832C7.22724 26.9269 7.43653 27.0267 7.66021 27.0746L12.1413 28.0351C11.7617 29.1906 11.4907 30.379 11.3317 31.5849C11.3029 31.8064 11.3253 32.0316 11.3973 32.2431C11.4693 32.4545 11.5888 32.6467 11.7468 32.8046L16.2678 37.3256C16.4032 37.4611 16.5639 37.5685 16.7408 37.6419C16.9177 37.7152 17.1073 37.7529 17.2988 37.7529C17.3409 37.7529 17.3829 37.7508 17.4256 37.7472C18.6584 37.6364 19.8762 37.3969 21.0591 37.0326L21.9978 41.4123C22.0458 41.6359 22.1457 41.8451 22.2894 42.023C22.4331 42.2009 22.6166 42.3425 22.8252 42.4365C23.0337 42.5304 23.2614 42.5739 23.4899 42.5636C23.7184 42.5533 23.9412 42.4894 24.1405 42.3771L29.8357 39.1649C30.6372 38.6779 31.2634 37.9488 31.6238 37.0829C31.9842 36.217 32.0602 35.259 31.8409 34.347L30.8657 30.3235L32.6697 28.6646C35.0382 26.6738 36.7927 24.0515 37.7292 21.1026C38.6657 18.1537 38.7457 14.9996 37.9598 12.007V12.007ZM10.2095 24.6379L12.4788 20.6132C12.6198 20.34 12.8599 20.1311 13.15 20.0292C13.4401 19.9274 13.7582 19.9404 14.039 20.0656L16.5436 20.6726L15.5956 21.7981C14.6969 22.8752 13.9197 24.048 13.2779 25.2954L10.2095 24.6379ZM28.3952 36.6285L24.4346 38.8623L23.8083 35.9388C25.0779 35.3056 26.2608 34.5117 27.3278 33.5765L28.4121 32.5795L29.0004 35.0071C29.0768 35.3068 29.0597 35.6227 28.9515 35.9125C28.8433 36.2023 28.6492 36.4521 28.3952 36.6285V36.6285ZM30.7493 26.4708L25.376 31.4091C23.2491 33.2484 20.6256 34.4176 17.8358 34.7693L14.3295 31.2631C14.8004 28.466 16.0091 25.8452 17.8308 23.671L20.2784 20.765C20.3192 20.7223 20.3572 20.6772 20.3923 20.6297L22.4849 18.1452C24.0322 16.3177 26.0367 14.9336 28.2938 14.1342C30.5509 13.3348 32.9797 13.1488 35.3322 13.595C35.7893 15.9549 35.6052 18.3942 34.7991 20.6588C33.9931 22.9233 32.5946 24.9304 30.7493 26.4708V26.4708ZM29.4033 17.482C28.9706 17.482 28.5477 17.6103 28.188 17.8506C27.8282 18.091 27.5478 18.4326 27.3823 18.8324C27.2167 19.2321 27.1734 19.6719 27.2578 20.0962C27.3422 20.5206 27.5505 20.9104 27.8565 21.2163C28.1624 21.5222 28.5522 21.7305 28.9765 21.815C29.4008 21.8994 29.8407 21.856 30.2404 21.6905C30.6401 21.5249 30.9817 21.2445 31.2221 20.8848C31.4625 20.5251 31.5908 20.1021 31.5908 19.6695C31.5908 19.3822 31.5342 19.0977 31.4243 18.8323C31.3144 18.5669 31.1532 18.3257 30.9501 18.1226C30.7469 17.9195 30.5058 17.7583 30.2404 17.6484C29.975 17.5385 29.6905 17.4819 29.4032 17.482L29.4033 17.482Z" fill="white"/>
<defs>
<linearGradient id="paint0_linear_5509_108226" x1="24.5" y1="0" x2="24.5" y2="49" gradientUnits="userSpaceOnUse">
<stop stop-color="#3EE8F1"/>
<stop offset="1" stop-color="#006CCF"/>
</linearGradient>
</defs>
</svg>
