<svg width="49" height="49" viewBox="0 0 49 49" fill="none" xmlns="http://www.w3.org/2000/svg">
<circle cx="24.5" cy="24.5" r="24.5" fill="url(#paint0_linear_5509_108521)"/>
<path d="M39.0833 21.102C38.9912 20.8352 38.8237 20.6009 38.6011 20.4275C38.3784 20.2541 38.1103 20.149 37.8291 20.1249L29.5312 18.9145L25.8124 11.3749C25.693 11.1283 25.5066 10.9204 25.2745 10.7749C25.0423 10.6294 24.7739 10.5522 24.4999 10.5522C24.226 10.5522 23.9576 10.6294 23.7254 10.7749C23.4933 10.9204 23.3069 11.1283 23.1874 11.3749L19.4687 18.8999L11.1708 20.1249C10.9009 20.1633 10.6471 20.2765 10.4383 20.4518C10.2295 20.6271 10.0741 20.8574 9.98953 21.1166C9.91216 21.3698 9.90521 21.6394 9.96945 21.8963C10.0337 22.1533 10.1667 22.3878 10.3541 22.5749L16.377 28.4082L14.9187 36.6916C14.8666 36.965 14.8939 37.2476 14.9973 37.506C15.1006 37.7644 15.2758 37.9878 15.502 38.1499C15.7226 38.3076 15.9827 38.4006 16.2531 38.4187C16.5236 38.4367 16.7938 38.379 17.0333 38.252L24.4999 34.3582L31.9374 38.2666C32.1421 38.382 32.3733 38.4423 32.6083 38.4416C32.9172 38.4427 33.2185 38.3457 33.4687 38.1645C33.695 38.0024 33.8701 37.779 33.9735 37.5206C34.0768 37.2622 34.1041 36.9796 34.052 36.7062L32.5937 28.4228L38.6166 22.5895C38.8272 22.4111 38.9828 22.1766 39.0654 21.9133C39.148 21.65 39.1542 21.3687 39.0833 21.102ZM30.1145 26.9353C29.9435 27.1007 29.8155 27.3055 29.7418 27.5317C29.6681 27.758 29.6509 27.9988 29.6916 28.2332L30.7416 34.3437L25.2583 31.427C25.0473 31.3146 24.8119 31.2559 24.5729 31.2559C24.3338 31.2559 24.0984 31.3146 23.8874 31.427L18.4041 34.3437L19.4541 28.2332C19.4949 27.9988 19.4776 27.758 19.4039 27.5317C19.3302 27.3055 19.2022 27.1007 19.0312 26.9353L14.6562 22.5603L20.7958 21.6707C21.032 21.6379 21.2566 21.5476 21.4498 21.4077C21.6431 21.2679 21.7991 21.0828 21.9041 20.8687L24.4999 15.3124L27.2416 20.8832C27.3467 21.0974 27.5027 21.2825 27.6959 21.4223C27.8891 21.5622 28.1137 21.6525 28.3499 21.6853L34.4895 22.5749L30.1145 26.9353Z" fill="white"/>
<defs>
<linearGradient id="paint0_linear_5509_108521" x1="24.5" y1="0" x2="24.5" y2="49" gradientUnits="userSpaceOnUse">
<stop stop-color="#3EE8F1"/>
<stop offset="1" stop-color="#006CCF"/>
</linearGradient>
</defs>
</svg>
